<svg width="60" height="60" viewBox="0 0 60 60" fill="none" xmlns="http://www.w3.org/2000/svg">
<path d="M56.7696 23.3108C58.0594 22.9884 58.8531 21.6773 58.4284 20.4174C56.5854 14.9493 53.1973 10.111 48.651 6.50236C43.4742 2.39333 37.0854 0.108856 30.4769 0.00379072C23.8684 -0.101275 17.4102 1.97895 12.1054 5.92134C6.80056 9.86373 2.94614 15.4476 1.14083 21.8056C-0.664491 28.1636 -0.319655 34.9398 2.12177 41.0817C4.5632 47.2236 8.96455 52.3873 14.6422 55.7709C20.3198 59.1544 26.9558 60.5682 33.5195 59.7928C39.2838 59.1119 44.7089 56.7759 49.1506 53.0923C50.174 52.2436 50.1877 50.7111 49.2597 49.759C48.3317 48.8069 46.8141 48.7977 45.7778 49.6306C42.1058 52.582 37.6651 54.4549 32.9547 55.0114C27.4444 55.6624 21.8733 54.4754 17.1069 51.6349C12.3405 48.7944 8.64553 44.4594 6.59593 39.3032C4.54632 34.147 4.25683 28.4583 5.77241 23.1207C7.288 17.7831 10.5238 13.0954 14.9773 9.7857C19.4307 6.47602 24.8524 4.72965 30.4004 4.81786C35.9483 4.90606 41.3118 6.8239 45.6577 10.2735C49.3729 13.2223 52.1667 17.1494 53.7398 21.5901C54.1837 22.8434 55.4797 23.6331 56.7696 23.3108Z" fill="#70D3FD"/>
<path d="M38.2642 45.8678C38.8961 47.0882 40.4087 47.5773 41.5424 46.8005C44.4851 44.7843 46.8558 42.0168 48.3956 38.7666C50.292 34.7633 50.8231 30.2485 49.9075 25.9144C48.9919 21.5804 46.6801 17.6662 43.3265 14.772C39.973 11.8779 35.7627 10.1635 31.3413 9.89166C26.9199 9.61986 22.5314 10.8057 18.8486 13.2673C15.1658 15.7289 12.392 19.3304 10.9524 23.5198C9.51285 27.7091 9.487 32.2549 10.8788 36.4603C12.0089 39.8747 14.0228 42.9117 16.6964 45.2732C17.7264 46.183 19.2875 45.8828 20.0641 44.749C20.8408 43.6151 20.5336 42.0794 19.5408 41.129C17.7481 39.4129 16.3912 37.2763 15.6036 34.8966C14.5539 31.725 14.5734 28.2966 15.6591 25.1371C16.7448 21.9776 18.8367 19.2614 21.6142 17.4049C24.3917 15.5484 27.7014 14.6541 31.036 14.8591C34.3705 15.0641 37.5458 16.357 40.075 18.5397C42.6042 20.7225 44.3477 23.6744 45.0382 26.9431C45.7287 30.2118 45.3282 33.6167 43.8979 36.6359C42.8248 38.9013 41.2164 40.8556 39.227 42.3392C38.1253 43.1608 37.6323 44.6474 38.2642 45.8678Z" fill="#88FF50"/>
<path d="M22.5521 27.0196C21.3177 26.5794 19.9313 27.2265 19.774 28.5275C19.6097 29.8869 19.7075 31.2728 20.0704 32.6085C20.6419 34.7124 21.8438 36.5909 23.5145 37.9916C25.1851 39.3923 27.2445 40.2481 29.4158 40.4439C31.5872 40.6397 33.7664 40.1662 35.6607 39.087C37.5551 38.0078 39.0736 36.3747 40.0124 34.407C40.9512 32.4393 41.2652 30.2314 40.9122 28.08C40.5592 25.9286 39.5561 23.9369 38.0378 22.3723C37.0739 21.3791 35.9316 20.5883 34.6784 20.0364C33.4791 19.5082 32.2154 20.3709 31.9646 21.6572C31.7138 22.9434 32.6012 24.156 33.6882 24.8879C34.0277 25.1164 34.3443 25.3806 34.6322 25.6774C35.4758 26.5466 36.0331 27.6532 36.2292 28.8484C36.4253 30.0437 36.2508 31.2703 35.7293 32.3635C35.2077 33.4567 34.364 34.364 33.3116 34.9636C32.2592 35.5632 31.0484 35.8262 29.8421 35.7175C28.6358 35.6087 27.4916 35.1332 26.5635 34.355C25.6353 33.5768 24.9676 32.5332 24.65 31.3643C24.5416 30.9653 24.4758 30.5582 24.4523 30.1497C24.377 28.8413 23.7864 27.4597 22.5521 27.0196Z" fill="#FF9D2B"/>
</svg>
