<svg width="700" height="700" viewBox="0 0 700 700" fill="none" xmlns="http://www.w3.org/2000/svg">
<rect width="700" height="700" fill="black"/>
<g filter="url(#filter0_f_1_6)">
<rect x="244" y="211" width="212" height="282" fill="url(#paint0_linear_1_6)"/>
</g>
<path d="M190.068 320.912V341H183.912V338.264C183.288 339.152 182.436 339.872 181.356 340.424C180.3 340.952 179.124 341.216 177.828 341.216C176.292 341.216 174.936 340.88 173.76 340.208C172.584 339.512 171.672 338.516 171.024 337.22C170.376 335.924 170.052 334.4 170.052 332.648V320.912H176.172V331.82C176.172 333.164 176.52 334.208 177.216 334.952C177.912 335.696 178.848 336.068 180.024 336.068C181.224 336.068 182.172 335.696 182.868 334.952C183.564 334.208 183.912 333.164 183.912 331.82V320.912H190.068ZM202.662 341.288C200.91 341.288 199.35 340.988 197.982 340.388C196.614 339.788 195.534 338.972 194.742 337.94C193.95 336.884 193.506 335.708 193.41 334.412H199.494C199.566 335.108 199.89 335.672 200.466 336.104C201.042 336.536 201.75 336.752 202.59 336.752C203.358 336.752 203.946 336.608 204.354 336.32C204.786 336.008 205.002 335.612 205.002 335.132C205.002 334.556 204.702 334.136 204.102 333.872C203.502 333.584 202.53 333.272 201.186 332.936C199.746 332.6 198.546 332.252 197.586 331.892C196.626 331.508 195.798 330.92 195.102 330.128C194.406 329.312 194.058 328.22 194.058 326.852C194.058 325.7 194.37 324.656 194.994 323.72C195.642 322.76 196.578 322.004 197.802 321.452C199.05 320.9 200.526 320.624 202.23 320.624C204.75 320.624 206.73 321.248 208.17 322.496C209.634 323.744 210.474 325.4 210.69 327.464H205.002C204.906 326.768 204.594 326.216 204.066 325.808C203.562 325.4 202.89 325.196 202.05 325.196C201.33 325.196 200.778 325.34 200.394 325.628C200.01 325.892 199.818 326.264 199.818 326.744C199.818 327.32 200.118 327.752 200.718 328.04C201.342 328.328 202.302 328.616 203.598 328.904C205.086 329.288 206.298 329.672 207.234 330.056C208.17 330.416 208.986 331.016 209.682 331.856C210.402 332.672 210.774 333.776 210.798 335.168C210.798 336.344 210.462 337.4 209.79 338.336C209.142 339.248 208.194 339.968 206.946 340.496C205.722 341.024 204.294 341.288 202.662 341.288ZM233.5 330.632C233.5 331.208 233.464 331.808 233.392 332.432H219.46C219.556 333.68 219.952 334.64 220.648 335.312C221.368 335.96 222.244 336.284 223.276 336.284C224.812 336.284 225.88 335.636 226.48 334.34H233.032C232.696 335.66 232.084 336.848 231.196 337.904C230.332 338.96 229.24 339.788 227.92 340.388C226.6 340.988 225.124 341.288 223.492 341.288C221.524 341.288 219.772 340.868 218.236 340.028C216.7 339.188 215.5 337.988 214.636 336.428C213.772 334.868 213.34 333.044 213.34 330.956C213.34 328.868 213.76 327.044 214.6 325.484C215.464 323.924 216.664 322.724 218.2 321.884C219.736 321.044 221.5 320.624 223.492 320.624C225.436 320.624 227.164 321.032 228.676 321.848C230.188 322.664 231.364 323.828 232.204 325.34C233.068 326.852 233.5 328.616 233.5 330.632ZM227.2 329.012C227.2 327.956 226.84 327.116 226.12 326.492C225.4 325.868 224.5 325.556 223.42 325.556C222.388 325.556 221.512 325.856 220.792 326.456C220.096 327.056 219.664 327.908 219.496 329.012H227.2ZM235.704 328.328C235.704 325.832 236.244 323.612 237.324 321.668C238.404 319.7 239.904 318.176 241.824 317.096C243.768 315.992 245.964 315.44 248.412 315.44C251.412 315.44 253.98 316.232 256.116 317.816C258.252 319.4 259.68 321.56 260.4 324.296H253.632C253.128 323.24 252.408 322.436 251.472 321.884C250.56 321.332 249.516 321.056 248.34 321.056C246.444 321.056 244.908 321.716 243.732 323.036C242.556 324.356 241.968 326.12 241.968 328.328C241.968 330.536 242.556 332.3 243.732 333.62C244.908 334.94 246.444 335.6 248.34 335.6C249.516 335.6 250.56 335.324 251.472 334.772C252.408 334.22 253.128 333.416 253.632 332.36H260.4C259.68 335.096 258.252 337.256 256.116 338.84C253.98 340.4 251.412 341.18 248.412 341.18C245.964 341.18 243.768 340.64 241.824 339.56C239.904 338.456 238.404 336.932 237.324 334.988C236.244 333.044 235.704 330.824 235.704 328.328ZM262.946 330.92C262.946 328.856 263.33 327.044 264.098 325.484C264.89 323.924 265.958 322.724 267.302 321.884C268.646 321.044 270.146 320.624 271.802 320.624C273.218 320.624 274.454 320.912 275.51 321.488C276.59 322.064 277.418 322.82 277.994 323.756V320.912H284.15V341H277.994V338.156C277.394 339.092 276.554 339.848 275.474 340.424C274.418 341 273.182 341.288 271.766 341.288C270.134 341.288 268.646 340.868 267.302 340.028C265.958 339.164 264.89 337.952 264.098 336.392C263.33 334.808 262.946 332.984 262.946 330.92ZM277.994 330.956C277.994 329.42 277.562 328.208 276.698 327.32C275.858 326.432 274.826 325.988 273.602 325.988C272.378 325.988 271.334 326.432 270.47 327.32C269.63 328.184 269.21 329.384 269.21 330.92C269.21 332.456 269.63 333.68 270.47 334.592C271.334 335.48 272.378 335.924 273.602 335.924C274.826 335.924 275.858 335.48 276.698 334.592C277.562 333.704 277.994 332.492 277.994 330.956ZM294.759 314.36V341H288.603V314.36H294.759ZM305.376 314.36V341H299.22V314.36H305.376ZM315.993 323.756C316.569 322.82 317.397 322.064 318.477 321.488C319.557 320.912 320.793 320.624 322.185 320.624C323.841 320.624 325.341 321.044 326.685 321.884C328.029 322.724 329.085 323.924 329.853 325.484C330.645 327.044 331.041 328.856 331.041 330.92C331.041 332.984 330.645 334.808 329.853 336.392C329.085 337.952 328.029 339.164 326.685 340.028C325.341 340.868 323.841 341.288 322.185 341.288C320.769 341.288 319.533 341.012 318.477 340.46C317.421 339.884 316.593 339.128 315.993 338.192V341H309.837V314.36H315.993V323.756ZM324.777 330.92C324.777 329.384 324.345 328.184 323.481 327.32C322.641 326.432 321.597 325.988 320.349 325.988C319.125 325.988 318.081 326.432 317.217 327.32C316.377 328.208 315.957 329.42 315.957 330.956C315.957 332.492 316.377 333.704 317.217 334.592C318.081 335.48 319.125 335.924 320.349 335.924C321.573 335.924 322.617 335.48 323.481 334.592C324.345 333.68 324.777 332.456 324.777 330.92ZM333.047 330.92C333.047 328.856 333.431 327.044 334.199 325.484C334.991 323.924 336.059 322.724 337.403 321.884C338.747 321.044 340.247 320.624 341.903 320.624C343.319 320.624 344.555 320.912 345.611 321.488C346.691 322.064 347.519 322.82 348.095 323.756V320.912H354.251V341H348.095V338.156C347.495 339.092 346.655 339.848 345.575 340.424C344.519 341 343.283 341.288 341.867 341.288C340.235 341.288 338.747 340.868 337.403 340.028C336.059 339.164 334.991 337.952 334.199 336.392C333.431 334.808 333.047 332.984 333.047 330.92ZM348.095 330.956C348.095 329.42 347.663 328.208 346.799 327.32C345.959 326.432 344.927 325.988 343.703 325.988C342.479 325.988 341.435 326.432 340.571 327.32C339.731 328.184 339.311 329.384 339.311 330.92C339.311 332.456 339.731 333.68 340.571 334.592C341.435 335.48 342.479 335.924 343.703 335.924C344.927 335.924 345.959 335.48 346.799 334.592C347.663 333.704 348.095 332.492 348.095 330.956ZM357.481 330.956C357.481 328.868 357.901 327.044 358.741 325.484C359.605 323.924 360.793 322.724 362.305 321.884C363.841 321.044 365.593 320.624 367.561 320.624C370.081 320.624 372.181 321.284 373.861 322.604C375.565 323.924 376.681 325.784 377.209 328.184H370.657C370.105 326.648 369.037 325.88 367.453 325.88C366.325 325.88 365.425 326.324 364.753 327.212C364.081 328.076 363.745 329.324 363.745 330.956C363.745 332.588 364.081 333.848 364.753 334.736C365.425 335.6 366.325 336.032 367.453 336.032C369.037 336.032 370.105 335.264 370.657 333.728H377.209C376.681 336.08 375.565 337.928 373.861 339.272C372.157 340.616 370.057 341.288 367.561 341.288C365.593 341.288 363.841 340.868 362.305 340.028C360.793 339.188 359.605 337.988 358.741 336.428C357.901 334.868 357.481 333.044 357.481 330.956ZM392.778 341L386.658 332.576V341H380.502V314.36H386.658V329.084L392.742 320.912H400.338L391.986 330.992L400.41 341H392.778ZM316.588 364.24L320.944 349.912H327.496L320.368 370H312.772L305.644 349.912H312.232L316.588 364.24ZM338.259 370.288C336.507 370.288 334.947 369.988 333.579 369.388C332.211 368.788 331.131 367.972 330.339 366.94C329.547 365.884 329.103 364.708 329.007 363.412H335.091C335.163 364.108 335.487 364.672 336.063 365.104C336.639 365.536 337.347 365.752 338.187 365.752C338.955 365.752 339.543 365.608 339.951 365.32C340.383 365.008 340.599 364.612 340.599 364.132C340.599 363.556 340.299 363.136 339.699 362.872C339.099 362.584 338.127 362.272 336.783 361.936C335.343 361.6 334.143 361.252 333.183 360.892C332.223 360.508 331.395 359.92 330.699 359.128C330.003 358.312 329.655 357.22 329.655 355.852C329.655 354.7 329.967 353.656 330.591 352.72C331.239 351.76 332.175 351.004 333.399 350.452C334.647 349.9 336.123 349.624 337.827 349.624C340.347 349.624 342.327 350.248 343.767 351.496C345.231 352.744 346.071 354.4 346.287 356.464H340.599C340.503 355.768 340.191 355.216 339.663 354.808C339.159 354.4 338.487 354.196 337.647 354.196C336.927 354.196 336.375 354.34 335.991 354.628C335.607 354.892 335.415 355.264 335.415 355.744C335.415 356.32 335.715 356.752 336.315 357.04C336.939 357.328 337.899 357.616 339.195 357.904C340.683 358.288 341.895 358.672 342.831 359.056C343.767 359.416 344.583 360.016 345.279 360.856C345.999 361.672 346.371 362.776 346.395 364.168C346.395 365.344 346.059 366.4 345.387 367.336C344.739 368.248 343.791 368.968 342.543 369.496C341.319 370.024 339.891 370.288 338.259 370.288ZM377.627 349.912V370H371.471V367.264C370.847 368.152 369.995 368.872 368.915 369.424C367.859 369.952 366.683 370.216 365.387 370.216C363.851 370.216 362.495 369.88 361.319 369.208C360.143 368.512 359.231 367.516 358.583 366.22C357.935 364.924 357.611 363.4 357.611 361.648V349.912H363.731V360.82C363.731 362.164 364.079 363.208 364.775 363.952C365.471 364.696 366.407 365.068 367.583 365.068C368.783 365.068 369.731 364.696 370.427 363.952C371.123 363.208 371.471 362.164 371.471 360.82V349.912H377.627ZM390.22 370.288C388.468 370.288 386.908 369.988 385.54 369.388C384.172 368.788 383.092 367.972 382.3 366.94C381.508 365.884 381.064 364.708 380.968 363.412H387.052C387.124 364.108 387.448 364.672 388.024 365.104C388.6 365.536 389.308 365.752 390.148 365.752C390.916 365.752 391.504 365.608 391.912 365.32C392.344 365.008 392.56 364.612 392.56 364.132C392.56 363.556 392.26 363.136 391.66 362.872C391.06 362.584 390.088 362.272 388.744 361.936C387.304 361.6 386.104 361.252 385.144 360.892C384.184 360.508 383.356 359.92 382.66 359.128C381.964 358.312 381.616 357.22 381.616 355.852C381.616 354.7 381.928 353.656 382.552 352.72C383.2 351.76 384.136 351.004 385.36 350.452C386.608 349.9 388.084 349.624 389.788 349.624C392.308 349.624 394.288 350.248 395.728 351.496C397.192 352.744 398.032 354.4 398.248 356.464H392.56C392.464 355.768 392.152 355.216 391.624 354.808C391.12 354.4 390.448 354.196 389.608 354.196C388.888 354.196 388.336 354.34 387.952 354.628C387.568 354.892 387.376 355.264 387.376 355.744C387.376 356.32 387.676 356.752 388.276 357.04C388.9 357.328 389.86 357.616 391.156 357.904C392.644 358.288 393.856 358.672 394.792 359.056C395.728 359.416 396.544 360.016 397.24 360.856C397.96 361.672 398.332 362.776 398.356 364.168C398.356 365.344 398.02 366.4 397.348 367.336C396.7 368.248 395.752 368.968 394.504 369.496C393.28 370.024 391.852 370.288 390.22 370.288ZM421.059 359.632C421.059 360.208 421.023 360.808 420.951 361.432H407.019C407.115 362.68 407.511 363.64 408.207 364.312C408.927 364.96 409.803 365.284 410.835 365.284C412.371 365.284 413.439 364.636 414.039 363.34H420.591C420.255 364.66 419.643 365.848 418.755 366.904C417.891 367.96 416.799 368.788 415.479 369.388C414.159 369.988 412.683 370.288 411.051 370.288C409.083 370.288 407.331 369.868 405.795 369.028C404.259 368.188 403.059 366.988 402.195 365.428C401.331 363.868 400.899 362.044 400.899 359.956C400.899 357.868 401.319 356.044 402.159 354.484C403.023 352.924 404.223 351.724 405.759 350.884C407.295 350.044 409.059 349.624 411.051 349.624C412.995 349.624 414.723 350.032 416.235 350.848C417.747 351.664 418.923 352.828 419.763 354.34C420.627 355.852 421.059 357.616 421.059 359.632ZM414.759 358.012C414.759 356.956 414.399 356.116 413.679 355.492C412.959 354.868 412.059 354.556 410.979 354.556C409.947 354.556 409.071 354.856 408.351 355.456C407.655 356.056 407.223 356.908 407.055 358.012H414.759ZM452.926 344.728V370H446.77V354.844L441.118 370H436.15L430.462 354.808V370H424.306V344.728H431.578L438.67 362.224L445.69 344.728H452.926ZM476.289 359.632C476.289 360.208 476.253 360.808 476.181 361.432H462.249C462.345 362.68 462.741 363.64 463.437 364.312C464.157 364.96 465.033 365.284 466.065 365.284C467.601 365.284 468.669 364.636 469.269 363.34H475.821C475.485 364.66 474.873 365.848 473.985 366.904C473.121 367.96 472.029 368.788 470.709 369.388C469.389 369.988 467.913 370.288 466.281 370.288C464.313 370.288 462.561 369.868 461.025 369.028C459.489 368.188 458.289 366.988 457.425 365.428C456.561 363.868 456.129 362.044 456.129 359.956C456.129 357.868 456.549 356.044 457.389 354.484C458.253 352.924 459.453 351.724 460.989 350.884C462.525 350.044 464.289 349.624 466.281 349.624C468.225 349.624 469.953 350.032 471.465 350.848C472.977 351.664 474.153 352.828 474.993 354.34C475.857 355.852 476.289 357.616 476.289 359.632ZM469.989 358.012C469.989 356.956 469.629 356.116 468.909 355.492C468.189 354.868 467.289 354.556 466.209 354.556C465.177 354.556 464.301 354.856 463.581 355.456C462.885 356.056 462.453 356.908 462.285 358.012H469.989ZM505.169 349.696C507.665 349.696 509.645 350.452 511.109 351.964C512.597 353.476 513.341 355.576 513.341 358.264V370H507.221V359.092C507.221 357.796 506.873 356.8 506.177 356.104C505.505 355.384 504.569 355.024 503.369 355.024C502.169 355.024 501.221 355.384 500.525 356.104C499.853 356.8 499.517 357.796 499.517 359.092V370H493.397V359.092C493.397 357.796 493.049 356.8 492.353 356.104C491.681 355.384 490.745 355.024 489.545 355.024C488.345 355.024 487.397 355.384 486.701 356.104C486.029 356.8 485.693 357.796 485.693 359.092V370H479.537V349.912H485.693V352.432C486.317 351.592 487.133 350.932 488.141 350.452C489.149 349.948 490.289 349.696 491.561 349.696C493.073 349.696 494.417 350.02 495.593 350.668C496.793 351.316 497.729 352.24 498.401 353.44C499.097 352.336 500.045 351.436 501.245 350.74C502.445 350.044 503.753 349.696 505.169 349.696ZM526.79 370.288C524.822 370.288 523.046 369.868 521.462 369.028C519.902 368.188 518.666 366.988 517.754 365.428C516.866 363.868 516.422 362.044 516.422 359.956C516.422 357.892 516.878 356.08 517.79 354.52C518.702 352.936 519.95 351.724 521.534 350.884C523.118 350.044 524.894 349.624 526.862 349.624C528.83 349.624 530.606 350.044 532.19 350.884C533.774 351.724 535.022 352.936 535.934 354.52C536.846 356.08 537.302 357.892 537.302 359.956C537.302 362.02 536.834 363.844 535.898 365.428C534.986 366.988 533.726 368.188 532.118 369.028C530.534 369.868 528.758 370.288 526.79 370.288ZM526.79 364.96C527.966 364.96 528.962 364.528 529.778 363.664C530.618 362.8 531.038 361.564 531.038 359.956C531.038 358.348 530.63 357.112 529.814 356.248C529.022 355.384 528.038 354.952 526.862 354.952C525.662 354.952 524.666 355.384 523.874 356.248C523.082 357.088 522.686 358.324 522.686 359.956C522.686 361.564 523.07 362.8 523.838 363.664C524.63 364.528 525.614 364.96 526.79 364.96Z" fill="white"/>
<defs>
<filter id="filter0_f_1_6" x="44" y="11" width="612" height="682" filterUnits="userSpaceOnUse" color-interpolation-filters="sRGB">
<feFlood flood-opacity="0" result="BackgroundImageFix"/>
<feBlend mode="normal" in="SourceGraphic" in2="BackgroundImageFix" result="shape"/>
<feGaussianBlur stdDeviation="100" result="effect1_foregroundBlur_1_6"/>
</filter>
<linearGradient id="paint0_linear_1_6" x1="350" y1="211" x2="350" y2="493" gradientUnits="userSpaceOnUse">
<stop stop-color="#194CFF" stop-opacity="0.65"/>
<stop offset="1" stop-color="#274CD2"/>
</linearGradient>
</defs>
</svg>
